<svg version="1.1" id="레이어_1" xmlns="http://www.w3.org/2000/svg" xmlns:xlink="http://www.w3.org/1999/xlink" x="0px" y="0px" viewBox="0 0 1000 400" enable-background="new 0 0 1000 500" xml:space="preserve">
                        <defs>
                            <filter id="f1" x="0" y="0" width="200%" height="200%">
                                <feOffset result="offOut" in="SourceAlpha" dx="20" dy="20"></feOffset>
                                <feGaussianBlur result="blurOut" in="offOut" stdDeviation="10"></feGaussianBlur>
                                <feBlend in="SourceGraphic" in2="blurOut" mode="normal"></feBlend>
                            </filter>
                        </defs>
                        <g filter="url(#f1)">
                            <path d="M83.6,319.7V315c11.7,0,21.3-0.9,21.3-10.4V200c0-7.9,0.8-7.9-11.3-7.9c-24.3,0-27.8,23.4-27.8,28.7h-4.7v-38h122.3
		l-0.1,38h-4.5c0-5.8-3.5-28.7-26.8-28.7c-13,0-12.6,0-12.6,7.9v104.7c0,9.4,4.5,10.4,18.2,10.4v4.7H83.6z"></path>
                            <path d="M201.2,319.5v-4.7c9,0,10.9-2.6,10.9-9.8V204.8c0-8.1-2.4-17.3-10.9-17.3v-4.8l38.9-0.3V237c7.9-6.8,16.8-14.7,26.5-14.7
		c15.3,0,26.4,12.9,26.4,30V305c0,6.8,2.4,9.8,11.1,9.8v4.7h-50.4v-4.7c9.8,0,11.3-3,11.3-9.8v-49.3c0-11.3-1.3-18.3-8-18.3
		c-4.9,0-9.5,3-16.9,10.5V305c0,7.2,0.7,9.8,10,9.8v4.7H201.2z"></path>
                            <path d="M347.9,269.2c0,9.9,3.4,22,7.1,27.8c4.1,6.4,12,12.8,26.7,8c2-0.7,8.6-6.1,13.1-11.5c0.8-1,2.6-1.5,3.7-0.3
		c1.5,1.5-0.9,5.5-1.4,6.5c-4.7,9.5-16.1,22.8-34.9,22.8c-26.2,0-42.4-18.8-42.4-47.3c0-29.7,15.3-52.7,42.9-52.7
		c24.9,0,35.3,18.8,35.3,46.6H347.9z M372.7,262.4c0-20.4-2.5-32.6-11.3-32.6c-9.2,0-13.9,12-13.9,32.6H372.7z"></path>
                            <path d="M593.1,298.9c-25.4,25.4-51.9,25.2-56.8,25.2c-30.3,0-69.1-25.4-69.1-71.6c0-44.6,36-72.6,75-72.6
		c12.3,0,25.4,4.2,33.4,8.6c3.7,2,13.3,3.8,17-8.1h3.5l0,47.9l-4.5,0c-1.1-15.7-18.6-38.1-43.5-38.1c-26.6,0-45.4,22.3-45.4,62.3
		c0,33.4,12.9,60.1,42.2,60.1c15.2,0,29.8-4.4,48.2-22.8V298.9z"></path>
                            <path d="M827.9,319.5v-4.7c8.5,0,10.9-2.8,10.9-10.9V202.8c0-7.2-3.1-15.1-10.6-15.1v-4.8h38.6V273l30.4-30.1
		c2.3-2.3,2.3-6.9,1.8-8c-2-4.5-5.9-5.2-11.2-5.2V225h42.2v4.7c-11.5,0-14.1,4.4-20.1,10l-18.5,18.2l34.5,48.6
		c4.1,5.5,4.9,8.3,13.1,8.3v4.7h-49.6v-4.7c6,0,6.6-1.7,6.6-2.8c0-1.7-1.2-3.3-2.3-5l-20.5-30.3l-6.5,6v21.1
		c0,8.1,2.2,10.9,11.1,10.9v4.7H827.9z"></path>
                        </g>
                        <path filter="url(#f1)" d="M768.6,222.3c-28.1,0-43.3,22.8-43.3,50.9c0,28.1,15.2,50.9,43.3,50.9s43.3-22.8,43.3-50.9
	C811.8,245.1,796.7,222.3,768.6,222.3z M768.5,316.1c-14.8,0-14.8-19.6-14.8-43.7c0-24.1-0.6-43.7,14.8-43.7
	c14.8,0,14.8,19.6,14.8,43.7C783.3,296.6,783.3,316.1,768.5,316.1z"></path>
                        <g filter="url(#f1)">
                            <path fill="#FF6821" d="M661.7,227.3c-15.4,0-14.8,19.6-14.8,43.7s0,43.7,14.8,43.7c14.8,0,14.8-19.6,14.8-43.7
		S676.5,227.3,661.7,227.3z"></path>
                            <path fill="#FF6821" d="M603.7,173.7v152.4h117V173.7H603.7z M661.7,322.6c-28.1,0-43.3-22.8-43.3-50.9s15.2-50.9,43.3-50.9
		s43.3,22.8,43.3,50.9S689.8,322.6,661.7,322.6z"></path>
                        </g>

                    </svg>